<?xml version="1.0" encoding="UTF-8"?>
<svg id="Layer_2" data-name="Layer 2" xmlns="http://www.w3.org/2000/svg" xmlns:xlink="http://www.w3.org/1999/xlink" viewBox="0 0 53.53 60.54">
  <defs>
    <style>
      .cls-1 {
        fill: url(#linear-gradient-4);
      }

      .cls-2 {
        fill: url(#linear-gradient-3);
      }

      .cls-3 {
        fill: url(#linear-gradient-2);
      }

      .cls-4 {
        fill: url(#linear-gradient);
      }
    </style>
    <linearGradient id="linear-gradient" x1="11.04" y1="27.21" x2="21.92" y2="27.21" gradientUnits="userSpaceOnUse">
      <stop offset="0" stop-color="#fb773c"/>
      <stop offset="1" stop-color="#eb3678"/>
    </linearGradient>
    <linearGradient id="linear-gradient-2" x1="30.6" x2="41.48" xlink:href="#linear-gradient"/>
    <linearGradient id="linear-gradient-3" x1="14.71" y1="41.23" x2="37.81" y2="41.23" xlink:href="#linear-gradient"/>
    <linearGradient id="linear-gradient-4" x1="0" y1="30.27" x2="53.53" y2="30.27" xlink:href="#linear-gradient"/>
  </defs>
  <g id="Layer_1-2" data-name="Layer 1">
    <g>
      <path class="cls-4" d="M21.92,27.21c0-3-2.44-5.44-5.44-5.44s-5.44,2.44-5.44,5.44,2.44,5.44,5.44,5.44,5.44-2.44,5.44-5.44ZM13.04,27.21c0-1.9,1.54-3.44,3.44-3.44s3.44,1.54,3.44,3.44-1.54,3.44-3.44,3.44-3.44-1.54-3.44-3.44Z"/>
      <path class="cls-3" d="M36.04,21.77c-3,0-5.44,2.44-5.44,5.44s2.44,5.44,5.44,5.44,5.44-2.44,5.44-5.44-2.44-5.44-5.44-5.44ZM36.04,30.65c-1.9,0-3.44-1.54-3.44-3.44s1.54-3.44,3.44-3.44,3.44,1.54,3.44,3.44-1.54,3.44-3.44,3.44Z"/>
      <path class="cls-2" d="M35.17,37.36h-17.82c-1.46,0-2.64,1.19-2.64,2.64v2.45c0,1.46,1.19,2.64,2.64,2.64h17.82c1.46,0,2.64-1.19,2.64-2.64v-2.45c0-1.46-1.18-2.64-2.64-2.64ZM35.81,42.45c0,.35-.29.64-.64.64h-17.82c-.35,0-.64-.29-.64-.64v-2.45c0-.35.29-.64.64-.64h17.82c.35,0,.64.29.64.64v2.45Z"/>
      <path class="cls-1" d="M53.53,24.79c0-1.67-1.36-3.02-3.02-3.02h-1.99v-2.18c0-3.51-2.86-6.37-6.37-6.37h-14.38v-3.45l12.54-4.36c.6.66,1.45,1.09,2.41,1.09,1.79,0,3.25-1.46,3.25-3.25s-1.46-3.25-3.25-3.25-3.25,1.46-3.25,3.25c0,.11.02.22.03.32l-12.74,4.43L14.03,3.57c.01-.11.03-.21.03-.32,0-1.79-1.46-3.25-3.25-3.25s-3.25,1.46-3.25,3.25,1.46,3.25,3.25,3.25c.96,0,1.81-.43,2.41-1.09l12.54,4.36v3.45h-14.38c-3.51,0-6.37,2.86-6.37,6.37v2.18h-1.99c-1.67,0-3.02,1.36-3.02,3.02v1.96c0,.78.3,1.48.79,2.02-.49.54-.79,1.24-.79,2.02v1.96c0,1.67,1.36,3.02,3.02,3.02h1.99v8.03c0,3.51,2.86,6.37,6.37,6.37h1.16v1.91h-3.76c-2.49,0-4.51,2.02-4.51,4.51v2.95c0,.55.45,1,1,1h41.96c.55,0,1-.45,1-1v-2.95c0-2.49-2.02-4.51-4.51-4.51h-3.76v-1.91h2.17c3.51,0,6.37-2.86,6.37-6.37v-8.03h1.99c1.67,0,3.02-1.36,3.02-3.02v-1.96c0-.78-.3-1.49-.79-2.02.49-.54.79-1.24.79-2.02v-1.96ZM42.72,2c.69,0,1.25.56,1.25,1.25s-.56,1.25-1.25,1.25-1.25-.56-1.25-1.25.56-1.25,1.25-1.25ZM10.81,4.5c-.69,0-1.25-.56-1.25-1.25s.56-1.25,1.25-1.25,1.25.56,1.25,1.25-.56,1.25-1.25,1.25ZM50.51,23.77c.56,0,1.02.46,1.02,1.02v1.96c0,.56-.46,1.02-1.02,1.02h-1.99v-4h1.99ZM2,24.79c0-.56.46-1.02,1.02-1.02h1.99v4h-1.99c-.56,0-1.02-.46-1.02-1.02v-1.96ZM3.02,33.77c-.56,0-1.02-.46-1.02-1.02v-1.96c0-.56.46-1.02,1.02-1.02h1.99v4h-1.99ZM46.24,56.59v1.95H6.28v-1.95c0-1.38,1.12-2.51,2.51-2.51h34.95c1.38,0,2.51,1.12,2.51,2.51ZM37.98,52.08H14.54v-1.91h23.43v1.91ZM46.52,43.8c0,2.41-1.96,4.37-4.37,4.37H11.38c-2.41,0-4.37-1.96-4.37-4.37v-24.21c0-2.41,1.96-4.37,4.37-4.37h30.77c2.41,0,4.37,1.96,4.37,4.37v24.21ZM51.53,32.75c0,.56-.46,1.02-1.02,1.02h-1.99v-4h1.99c.56,0,1.02.46,1.02,1.02v1.96Z"/>
    </g>
  </g>
</svg>