<?xml version="1.0" encoding="UTF-8"?>
<svg id="Layer_2" data-name="Layer 2" xmlns="http://www.w3.org/2000/svg" viewBox="0 0 53.53 60.54">
  <defs>
    <linearGradient id="grad1" x1="0%" y1="0%" x2="100%" y2="100%">
      <stop offset="0%" style="stop-color:#FB773C;stop-opacity:1" />
      <stop offset="100%" style="stop-color:#EB3678;stop-opacity:1" />
    </linearGradient>
    <style>
      .cls-1 {
        fill: none;
        stroke: #FB773C;
        stroke-linecap: round;
        stroke-linejoin: round;
        stroke-width: 2px;
      }
    </style>
  </defs>
  <g id="Layer_1-2" data-name="Layer 1">
    <g>
      <rect class="cls-1" x="6.02" y="14.22" width="41.5" height="34.95" rx="5.37" ry="5.37"/>
      <polyline class="cls-1" points="26.77 14.22 26.77 9.06 12.84 4.22"/>
      <circle class="cls-1" cx="10.81" cy="3.25" r="2.25"/>
      <polyline class="cls-1" points="26.77 14.22 26.77 9.06 40.69 4.22"/>
      <circle class="cls-1" cx="42.72" cy="3.25" r="2.25"/>
      <circle class="cls-1" cx="16.48" cy="27.21" r="4.44"/>
      <circle class="cls-1" cx="36.04" cy="27.21" r="4.44"/>
      <rect class="cls-1" x="15.71" y="38.36" width="21.1" height="5.74" rx="1.64" ry="1.64"/>
      <path class="cls-1" d="M3.02,22.77h2.99v6h-2.99c-1.12,0-2.02-.91-2.02-2.02v-1.96c0-1.12.91-2.02,2.02-2.02Z"/>
      <path class="cls-1" d="M3.02,28.77h2.99v6h-2.99c-1.12,0-2.02-.91-2.02-2.02v-1.96c0-1.12.91-2.02,2.02-2.02Z"/>
      <path class="cls-1" d="M49.54,22.77h2.99v6h-2.99c-1.12,0-2.02-.91-2.02-2.02v-1.96c0-1.12.91-2.02,2.02-2.02Z" transform="translate(100.05 51.54) rotate(-180)"/>
      <path class="cls-1" d="M49.54,28.77h2.99v6h-2.99c-1.12,0-2.02-.91-2.02-2.02v-1.96c0-1.12.91-2.02,2.02-2.02Z" transform="translate(100.05 63.54) rotate(-180)"/>
      <rect class="cls-1" x="13.54" y="49.17" width="25.43" height="3.91"/>
      <path class="cls-1" d="M8.79,53.08h34.95c1.94,0,3.51,1.57,3.51,3.51v2.95H5.28v-2.95c0-1.94,1.57-3.51,3.51-3.51Z"/>
    </g>
  </g>
</svg>