<?xml version="1.0" encoding="UTF-8"?>
<svg id="Layer_2" xmlns="http://www.w3.org/2000/svg" viewBox="0 0 103 117.67">
  <defs>
    <style>
      .cls-1, .cls-2 {
        fill: #fff;
      }

      .cls-1, .cls-2, .cls-3, .cls-4, .cls-5 {
        stroke: #000;
        stroke-miterlimit: 10;
        stroke-width: 3px;
      }

      .cls-2, .cls-4 {
        stroke-linecap: round;
      }

      .cls-3 {
        fill: #e2a67d;
      }

      .cls-6 {
        fill: #779178;
      }

      .cls-7 {
        fill: #bc6931;
      }

      .cls-4, .cls-5 {
        fill: none;
      }
    </style>
  </defs>
  <g id="Layer_2-2" data-name="Layer_2">
    <g id="full_x5F_face">
      <g id="bottom_x5F_face">
        <path id="face_x5F_color" class="cls-3" d="M100.16,30.17c.87,3.24,1.34,6.65,1.34,10.17v36.98c0,21.46-17.39,38.85-38.84,38.85h-22.32c-21.45,0-38.84-17.39-38.84-38.85v-36.98c0-3.52.47-6.93,1.35-10.17"/>
        
        <g id="face-shadow">
          <path class="cls-7" d="M102,62l-.5,15.32c0,21.46-17.39,38.85-38.84,38.85l-22.66-.17c56,0,62-54,62-54Z"/>
        </g>
        <path id="outline" class="cls-5" d="M100.16,30.17c.87,3.24,1.34,6.65,1.34,10.17v36.98c0,21.46-17.39,38.85-38.84,38.85h-22.32c-21.45,0-38.84-17.39-38.84-38.85v-36.98c0-3.52.47-6.93,1.35-10.17"/>
      </g>

    </g>
  </g>
</svg>