<?xml version="1.0" encoding="UTF-8"?>
<svg id="Layer_2" xmlns="http://www.w3.org/2000/svg" viewBox="0 0 150 180.5">
  <defs>
    <style>
      .cls-1 {
        fill: #e2a67d;
      }

      .cls-1, .cls-2, .cls-3 {
        stroke: #000;
        stroke-miterlimit: 10;
        stroke-width: 3px;
      }

      .cls-2 {
        fill: #c1212d;
      }

      .cls-4 {
        fill: #9b0d1e;
      }

      .cls-3 {
        fill: none;
      }
    </style>
  </defs>
  <g id="Layer_3">
    <g id="apendices">
      <rect id="neck" class="cls-1" x="56.5" y="1.5" width="38" height="54"/>
      <rect id="arm" class="cls-1" x="1.5" y="44.5" width="36" height="107" rx="18" ry="18"/>
      <rect id="arm-2" data-name="arm" class="cls-1" x="112.5" y="44.5" width="36" height="107" rx="18" ry="18"/>
    </g>
    <g id="shirt">
      <path id="color" class="cls-2" d="M130.5,179H19.5V47.03c0-15.76,12.77-28.53,28.53-28.53h8.47l14.56,14.66c2.12,2.14,5.56,2.19,7.75.13l15.69-14.79h7.47c15.76,0,28.53,12.77,28.53,28.53v131.97Z"/>
      <path id="shadow" class="cls-4" d="M130.5,70.98s-19.13,79.02-46,108.52h46v-108.52Z"/>
      <path id="outline" class="cls-3" d="M130.5,179H19.5V47.03c0-15.76,12.77-28.53,28.53-28.53h8.47l14.56,14.66c2.12,2.14,5.56,2.19,7.75.13l15.69-14.79h7.47c15.76,0,28.53,12.77,28.53,28.53v131.97Z"/>
    </g>
  </g>
</svg>